<svg width="116" height="36" viewBox="0 0 116 36" fill="none" xmlns="http://www.w3.org/2000/svg">
<path fill-rule="evenodd" clip-rule="evenodd" d="M10.5574 12.077C10.5574 12.0139 10.5573 11.9503 10.5573 11.8862V11.1081C7.9671 11.1081 5.23077 11.6639 5.23077 14.7259C5.23077 16.277 6.03202 17.328 7.40774 17.328C8.4156 17.328 9.31763 16.7065 9.88707 15.696C10.5603 14.5099 10.559 13.3928 10.5574 12.077ZM13.3239 20.7285C13.5909 20.87 13.9336 20.8548 14.1705 20.6426L14.1805 20.6527C14.8961 20.0161 16.1963 18.8792 16.9269 18.2678C17.2192 18.0253 17.1688 17.6362 16.937 17.3129C16.8668 17.2154 16.7961 17.1198 16.7259 17.0249C16.1408 16.2343 15.5865 15.4853 15.5865 13.9831V8.38467C15.5865 8.19342 15.5876 8.00343 15.5887 7.81487C15.6009 5.66699 15.6121 3.70549 14.0092 2.20517C12.6335 0.881357 10.3557 0.416504 8.61213 0.416504C5.20558 0.416504 1.40092 1.6898 0.599674 5.91388C0.519045 6.36357 0.84156 6.60106 1.13384 6.66674L4.61094 7.04064C4.93346 7.02548 5.1703 6.70716 5.23077 6.38378C5.52809 4.9286 6.7476 4.22627 8.11324 4.22627C8.84898 4.22627 9.6855 4.49911 10.1239 5.16103C10.5716 5.82302 10.5648 6.70474 10.5587 7.49581C10.558 7.58628 10.5573 7.67555 10.5573 7.76318V8.22803C10.2219 8.2664 9.86972 8.30253 9.50682 8.33976C7.62356 8.53296 5.45067 8.75587 3.81977 9.47606C1.5773 10.4462 0 12.4319 0 15.3473C0 19.0813 2.3483 20.9458 5.36179 20.9458C7.91167 20.9458 9.30251 20.3445 11.2678 18.3335C11.3715 18.4831 11.4641 18.6205 11.5512 18.7497C12.0144 19.4372 12.3228 19.8949 13.3239 20.7285ZM57.5285 11.8862L57.5286 12.077C57.5301 13.3928 57.5314 14.5099 56.8582 15.696C56.2888 16.7065 55.3817 17.328 54.3789 17.328C53.0032 17.328 52.1969 16.277 52.1969 14.7259C52.1969 11.6639 54.9332 11.1081 57.5285 11.1081V11.8862ZM61.1416 20.6426C60.9048 20.8548 60.5621 20.87 60.295 20.7285C59.2829 19.8857 58.9752 19.4271 58.5052 18.7268L58.5051 18.7265C58.4229 18.604 58.3357 18.4741 58.239 18.3335C56.2737 20.3445 54.8778 20.9458 52.3329 20.9458C49.3144 20.9458 46.9712 19.0813 46.9712 15.3473C46.9712 12.4319 48.5434 10.4462 50.7909 9.47606C52.4218 8.75587 54.5947 8.53296 56.478 8.33976L56.478 8.33975C56.8409 8.30252 57.193 8.2664 57.5285 8.22803V7.76318C57.5285 7.67642 57.5291 7.58804 57.5298 7.49849V7.49795C57.5359 6.70633 57.5427 5.82362 57.09 5.16103C56.6567 4.49911 55.8201 4.22627 55.0794 4.22627C53.7137 4.22627 52.4992 4.9286 52.2019 6.38378C52.1415 6.70716 51.9046 7.02548 51.5771 7.04064L48.105 6.66674C47.8127 6.60106 47.4852 6.36357 47.5708 5.91388C48.367 1.6898 52.1767 0.416504 55.5833 0.416504C57.3269 0.416504 59.6046 0.881357 60.9804 2.20517C62.5832 3.7055 62.5721 5.667 62.5598 7.81488C62.5587 8.00344 62.5577 8.19343 62.5577 8.38467V13.9831C62.5577 15.4853 63.112 16.2343 63.697 17.0249C63.7673 17.1198 63.838 17.2154 63.9082 17.3129C64.1349 17.6362 64.1853 18.0253 63.893 18.2678C63.1624 18.8792 61.8622 20.0161 61.1466 20.6527L61.1416 20.6426ZM20.3738 20.6931H23.9567C24.3397 20.6931 24.6471 20.395 24.6471 20.0262V10.2542L24.6469 10.0216C24.6433 7.91394 24.6388 5.17113 27.1214 5.17113C29.4065 5.17113 29.3675 7.61146 29.3358 9.59847V9.5985V9.59854V9.59858V9.59861C29.3321 9.8244 29.3286 10.0443 29.3286 10.2542L29.3337 20.0262C29.3337 20.3799 29.6159 20.6679 29.9787 20.6931H33.5566C33.9396 20.6931 34.247 20.395 34.247 20.0262V10.2542C34.247 10.1726 34.2467 10.0879 34.2465 10.0006V10.0006C34.2439 8.96921 34.2404 7.57948 34.5796 6.72232C34.9474 5.79261 35.8545 5.21155 36.7213 5.21155C37.7593 5.21155 38.5606 5.56019 38.8277 6.79811C38.9656 7.3919 38.9468 8.76481 38.9342 9.68366C38.9311 9.90636 38.9285 10.1024 38.9285 10.2542V20.0262C38.9285 20.3799 39.2157 20.6679 39.5735 20.6931H43.1514C43.5344 20.6931 43.8418 20.395 43.8418 20.0262L43.8468 8.38972C43.8468 8.10608 43.8516 7.81671 43.8564 7.52451V7.52433V7.52414V7.52395V7.52377C43.8852 5.78097 43.9157 3.93769 42.9448 2.60939C41.9419 1.21484 40.2991 0.59335 38.7974 0.59335C36.686 0.59335 34.7156 1.67969 33.8489 4.009C32.841 1.67969 31.4401 0.59335 29.1976 0.59335C26.9904 0.59335 25.3526 1.67969 24.4808 4.009H24.4153V1.59884C24.3901 1.26536 24.113 0.99756 23.7653 0.982412H20.4242C20.0412 0.982412 19.7338 1.27547 19.7338 1.64432V20.0817C19.759 20.4102 20.0311 20.6679 20.3738 20.6931ZM66.9166 4.23637V1.59884C66.9166 1.19968 67.219 0.931884 67.5818 0.931884H79.3586C79.7366 0.931884 80.0389 1.20473 80.0389 1.59884V3.85742C80.0339 4.23637 79.7164 4.73154 79.152 5.51471L73.0494 14.2509C75.3171 14.1953 77.7108 14.5338 79.7668 15.696C80.2304 15.9587 80.3564 16.3427 80.3917 16.7217V19.5361C80.3917 19.9201 79.9684 20.3698 79.5249 20.1373C75.9017 18.2324 71.0892 18.0253 67.0829 20.1575C66.6747 20.3799 66.2464 19.9352 66.2464 19.5512V16.8783C66.2464 16.4488 66.2514 15.7162 66.6798 15.0644L73.7499 4.89828H67.5969C67.219 4.89828 66.9166 4.63049 66.9166 4.23637ZM66.8026 24.2964C68.987 24.0366 73.7648 23.4683 74.6167 24.5635C75.4779 25.6694 73.6614 30.2171 72.8493 32.2501L72.8479 32.2538C72.6009 32.8702 73.1301 33.1178 73.6844 32.653C77.2976 29.6264 78.2248 23.2852 77.489 22.3706C76.7533 21.4611 70.4441 20.678 66.5992 23.3913C66.0045 23.8056 66.1053 24.3816 66.7654 24.3008L66.8026 24.2964ZM46.946 35.3966C55.3414 35.3966 65.0924 32.7439 71.8199 27.772C72.9335 26.9434 71.9811 25.7105 70.8422 26.1956C63.3035 29.404 55.1046 30.9502 47.6515 30.9502C36.6003 30.9502 25.9019 27.9135 17.2495 22.8658C16.4936 22.4212 15.9292 23.1993 16.5591 23.7702C24.5766 31.031 35.1742 35.3966 46.946 35.3966ZM90.178 0.59335C95.4944 0.59335 98.3718 5.17113 98.3718 10.9919C98.3718 16.6156 95.192 21.0771 90.178 21.0771C84.9573 21.0771 82.1151 16.4994 82.1151 10.7948C82.1151 5.05491 84.9925 0.59335 90.178 0.59335ZM90.2082 4.35764C87.5676 4.35764 87.4013 7.96529 87.4013 10.2138L87.4013 10.2965C87.4009 12.5828 87.4 17.2775 90.178 17.2775C92.9546 17.2775 93.0856 13.397 93.0856 11.0323C93.0856 9.47606 93.0201 7.61665 92.5515 6.14125C92.1483 4.85786 91.3471 4.35764 90.2082 4.35764ZM101.698 20.6931H105.266C105.649 20.6931 105.961 20.395 105.966 20.0262V10.0975C105.966 8.85457 106.032 7.73287 106.535 6.6061C106.934 5.71683 107.735 5.13071 108.607 5.13071C110.89 5.13071 110.869 7.6443 110.852 9.61666C110.85 9.78132 110.849 9.94221 110.849 10.0975V20.1121C110.884 20.4253 111.156 20.6679 111.484 20.6931H115.077C115.43 20.6931 115.727 20.4354 115.767 20.1121V8.50593C115.767 6.72232 115.767 4.24142 114.83 2.76603C113.822 1.17442 112.255 0.59335 110.648 0.59335C108.173 0.59335 106.767 1.7959 105.764 4.31722H105.699V1.49779C105.628 1.20978 105.371 0.99756 105.059 0.982412H101.738C101.375 0.982412 101.078 1.24515 101.048 1.58369L101.053 20.0262C101.053 20.3799 101.34 20.6679 101.698 20.6931Z" fill="#CAD1E1"/>
</svg>
