<svg width="149" height="38" viewBox="0 0 149 38" fill="none" xmlns="http://www.w3.org/2000/svg">
<path fill-rule="evenodd" clip-rule="evenodd" d="M0.573242 13.5795C0.573242 6.50937 5.75874 0 15.5865 0C23.4635 0 29.5873 5.55856 29.612 12.9944C29.612 20.7471 24.6735 26.9639 17.8088 26.9639C15.5124 26.9639 13.3394 25.7693 12.5987 24.3796C12.5987 24.3796 11.4628 28.6705 11.1912 29.7188C10.4257 32.62 7.70947 36.6426 7.48724 36.9352C7.46254 36.9839 7.38847 37.0327 7.31439 37.0327C7.19092 37.0327 7.06746 36.9352 7.06746 36.8133C6.99338 36.3988 6.20321 31.5716 6.89461 28.5973C7.31439 26.842 9.56144 17.4314 9.56144 17.4314C9.09227 16.3831 8.84534 15.2373 8.87004 14.0914C8.87004 10.9708 10.6973 8.63039 12.9937 8.63039C14.9198 8.63039 15.8581 10.0688 15.8581 11.7997C15.8581 12.9914 15.3854 14.5471 14.8846 16.1954C14.576 17.2111 14.2568 18.2619 14.0308 19.2843C13.4876 21.5028 15.1667 23.3313 17.3891 23.3313C21.414 23.3313 24.5253 19.138 24.5253 13.0675C24.5253 7.70397 20.6238 3.9495 15.0432 3.9495C8.57372 3.9495 4.77102 8.72791 4.77102 13.677C4.77102 15.603 5.51181 17.6752 6.45014 18.7967C6.5983 18.9917 6.67237 19.2355 6.59829 19.455C6.50853 19.8221 6.35883 20.4063 6.22528 20.9274C6.10166 21.4097 5.99189 21.8381 5.95628 21.9904C5.85751 22.4049 5.63527 22.478 5.1908 22.283C2.35113 20.9665 0.573242 16.8707 0.573242 13.5795ZM147.249 17.7728H143.668C143.668 17.7728 143.051 20.3082 142.681 21.771C142.598 22.0802 142.518 22.3803 142.44 22.6709L142.423 22.7337L142.422 22.7409C141.785 25.1186 141.322 26.8492 141.322 27.6465C141.322 28.6948 141.89 29.3043 142.878 29.3043C144.582 29.3043 145.446 27.8903 145.792 26.5494C145.841 26.2813 146.088 26.0862 146.36 26.0862H147.915C147.965 26.0862 148.039 26.0862 148.088 26.1106C148.286 26.2081 148.36 26.4275 148.286 26.6226C147.199 30.4014 144.656 32.9857 140.606 32.9857C137.742 32.9857 136.433 31.2547 136.433 28.963C136.433 27.2564 139.001 17.8703 139.001 17.8703H136.507C136.038 17.8703 135.816 17.5777 135.915 17.1633C135.977 16.9773 136.11 16.4467 136.243 15.9156L136.243 15.915L136.243 15.9137C136.319 15.6099 136.395 15.306 136.458 15.0666C136.557 14.6034 136.853 14.4084 137.347 14.4084H139.89C139.89 14.4084 141.396 10.0444 141.396 7.60645C141.396 4.63213 139.47 2.80366 136.532 2.80366C132.31 2.80366 130.26 5.72922 130.26 9.28864C130.26 12.6968 131.85 14.181 133.139 15.3837C134.016 16.2028 134.754 16.8912 134.754 17.9678C134.754 18.8942 134.186 19.9182 132.877 19.9182C131.347 19.9182 130.458 18.7236 130.013 17.6509C129.248 17.4071 128.433 17.2852 127.643 17.2852C125.963 17.2852 124.976 17.8459 124.976 19.0893C124.976 20.4174 126.367 20.8985 128.179 21.5249L128.18 21.5252L128.181 21.5255C128.43 21.6118 128.688 21.7009 128.951 21.7954C131.593 22.7462 134.186 23.8921 134.186 26.9883C134.186 30.4258 131.297 33.01 126.26 33.01C122.581 33.01 119.766 31.5716 118.654 29.7675C116.309 31.6935 113.79 32.9857 109.888 32.9857C104.9 32.9857 101.987 29.7188 101.987 25.8668C101.987 25.1598 102.061 24.4528 102.16 23.7702C101.708 23.666 101.256 23.571 100.82 23.4795C100.542 23.421 100.271 23.364 100.011 23.3069C99.2952 23.7945 98.3816 24.0627 97.2704 24.0627C95.8382 24.0627 94.7517 23.1363 94.7517 22.1367C94.7517 20.6008 95.937 19.8938 97.3939 20.1863C97.5667 19.8694 97.6408 19.5037 97.6408 19.1624C97.6408 18.236 97.1963 17.6509 96.1345 17.6509C93.122 17.6509 91.1219 22.6243 89.8625 27.4027C89.4961 28.8361 89.1859 30.0232 88.978 30.819C88.8217 31.4173 88.7232 31.7944 88.702 31.8886C88.6279 32.303 88.2575 32.5956 87.8377 32.5712H84.6524C84.1091 32.5712 83.9116 32.2055 84.035 31.7667C84.048 31.7283 84.1221 31.4417 84.2431 30.9738C84.3528 30.5497 84.5009 29.9766 84.677 29.3043C82.4547 31.6692 79.3187 32.9857 76.0592 32.9613C72.4294 32.9613 69.9354 31.1816 68.8736 28.7192C67.5896 30.8403 65.4166 32.9613 61.8115 32.9613C59.6385 32.9613 58.4533 31.9617 58.0088 30.4746C56.7988 31.8886 55.095 32.9613 52.8233 32.9613C49.4898 32.9613 48.8231 30.694 48.8231 28.9386C48.8231 27.5382 49.473 25.0505 50.0143 22.9789C50.3682 21.6243 50.6756 20.4477 50.7244 19.8694C50.8232 18.5285 49.9342 17.8459 48.8724 17.8459C46.6501 17.8459 45.0697 19.5281 44.4277 22.0392C44.4277 22.0392 42.0325 31.3766 41.9091 31.8642C41.7856 32.3518 41.588 32.5712 41.0201 32.5712H37.7854C37.2668 32.5712 37.1186 32.1811 37.2421 31.7423C37.2614 31.7042 37.3409 31.3987 37.4688 30.9068L37.4703 30.901C37.5059 30.7644 37.5451 30.6136 37.5878 30.4502C36.2544 31.8642 34.5012 32.9613 32.3035 32.9613C29.4392 32.9613 28.4021 31.2303 28.4021 28.9386C28.4021 27.7638 29.0145 25.3999 29.6453 22.9646C29.7083 22.7215 29.7715 22.4777 29.8343 22.2342C30.7726 18.5285 31.6615 15.2129 31.6615 15.2129C31.7603 14.7984 31.9825 14.5059 32.5505 14.5059H35.7112C36.2544 14.5059 36.4272 14.8472 36.3285 15.2617C36.2934 15.4231 36.1093 16.1242 35.8335 17.1743L35.8335 17.1746L35.833 17.1763C35.5257 18.3467 35.1046 19.9499 34.6494 21.7223C34.5638 22.0631 34.4798 22.3958 34.3982 22.7188C33.8204 25.006 33.3653 26.8073 33.3653 27.5978C33.3653 28.6461 33.8098 29.2556 34.7975 29.2556C36.7236 29.2556 38.5261 26.842 39.2669 23.9408C39.7659 22.004 40.27 20.0311 40.6741 18.4496L40.6757 18.4437L40.6759 18.4427L40.6772 18.4375C41.1515 16.5816 41.4873 15.2675 41.514 15.1885C41.6127 14.8228 41.7856 14.4571 42.4523 14.4571H45.5636C45.6377 14.4571 45.7364 14.4571 45.8105 14.4815C46.1068 14.579 46.2797 14.896 46.1809 15.1885C46.0821 15.5542 45.8105 16.4806 45.8105 16.4806C46.6995 15.3592 48.7984 14.0671 50.8232 14.0671C54.0332 14.0671 55.5889 15.7493 55.5889 18.626C55.5889 19.7311 55.0845 21.5282 54.5952 23.2711L54.5952 23.2711C54.1346 24.9121 53.6875 26.505 53.6875 27.4271C53.6875 28.6461 54.1567 29.2068 55.2926 29.2068C57.1692 29.2068 58.3298 25.7693 58.6755 24.3065C59.4163 21.2591 60.3052 17.8703 60.3299 17.7971H57.7865C57.3174 17.7971 57.0951 17.5046 57.1939 17.0901C57.2568 16.904 57.3896 16.3722 57.5225 15.8405L57.5228 15.8394C57.5986 15.5359 57.6744 15.2325 57.7372 14.9935C57.8359 14.5303 58.1322 14.3352 58.6261 14.3352H61.2189L62.5523 9.04485C62.7251 8.3866 63.0955 8.11842 63.5647 8.0209C64.0338 7.92338 66.5525 7.43579 66.5525 7.43579C67.0711 7.31389 67.5896 7.65521 67.4415 8.2647C67.3921 8.43536 65.9105 14.3109 65.9105 14.3109H69.1699C69.6391 14.3109 69.8613 14.6034 69.7626 15.0179C69.6638 15.3104 69.3675 16.4563 69.2193 17.1145C69.0959 17.5777 68.8242 17.7728 68.3304 17.7728H65.0216C64.8827 18.321 64.75 18.8512 64.6255 19.3485L64.6242 19.3538L64.6225 19.3606L64.6223 19.3616L64.6218 19.3634C64.3935 20.2753 64.1931 21.0759 64.0338 21.6735C63.8832 22.258 63.7359 22.8167 63.5971 23.3429C63.0761 25.3186 62.6757 26.8367 62.6757 27.549C62.6757 28.5973 63.2437 29.2068 64.2314 29.2068C66.2562 29.2068 68.1329 26.1837 68.4045 23.9896C69.0465 18.6992 72.7504 14.0427 78.8249 14.0427H78.8495C82.9486 14.0427 85.0228 16.4806 85.0228 18.8211C85.0228 23.1607 81.9115 25.3305 76.8988 25.3305C75.7382 25.3305 74.0838 25.0867 73.343 24.7941C73.343 27.9147 74.8246 29.475 77.6643 29.475C81.9855 29.475 85.4178 26.3056 86.0845 23.7458C87.1463 19.6744 88.2328 15.4567 88.3069 15.1154C88.4304 14.6034 88.7514 14.4571 89.1958 14.4571H92.3565C92.9245 14.4571 93.0726 14.8472 92.9738 15.2129C92.9738 15.2527 92.9006 15.5312 92.7781 15.9971L92.7779 15.9978C92.6754 16.3872 92.5386 16.9076 92.3812 17.529C93.7887 15.4567 95.8135 14.0671 97.9618 14.0671C101.024 14.0671 102.184 16.2368 102.184 18.0653C102.184 19.0161 102.011 19.9913 101.666 20.8934C101.851 20.9421 102.036 20.9848 102.221 21.0274C102.407 21.0701 102.592 21.1128 102.777 21.1615C104.086 17.4314 107.123 14.0671 112.506 14.0671H112.531C116.63 14.0671 118.704 16.505 118.704 18.8455C118.704 23.185 115.42 25.3548 110.605 25.3548C109.469 25.3548 107.715 25.111 107.049 24.916C107.049 28.0366 108.506 29.4994 111.37 29.4994C114.259 29.4994 116.284 28.5242 118.161 27.0126C118.407 25.7693 119.395 24.8429 120.556 24.8429C121.939 24.8429 122.679 25.6718 122.679 26.7201C122.704 27.2564 122.482 27.7684 122.087 28.1097C122.457 28.5486 123.865 29.7432 126.408 29.7432C128.581 29.7432 129.667 29.0849 129.667 27.9635C129.667 26.5386 128.232 26.0758 126.473 25.5082C126.155 25.4057 125.827 25.2998 125.494 25.1842C123.05 24.3309 120.457 23.0631 120.457 19.8207C120.457 16.3587 123.247 13.9695 127.692 13.9695C128.013 13.9695 128.334 13.9695 128.655 13.9939C127.791 12.6043 127.322 11.0196 127.297 9.38616C127.297 3.9495 131.1 0.0731389 136.952 0.0731389C142.137 0.0731389 145.792 3.68133 145.792 7.92338C145.792 9.67568 145.101 12.2101 144.721 13.6019L144.721 13.6046L144.72 13.6084C144.641 13.8984 144.575 14.1384 144.533 14.3109H148.088C148.557 14.3109 148.78 14.6034 148.681 15.0179C148.618 15.2038 148.486 15.7344 148.353 16.2655L148.353 16.2662L148.352 16.2674C148.276 16.5713 148.201 16.8751 148.138 17.1145C148.039 17.5777 147.743 17.7728 147.249 17.7728ZM78.01 17.6265C79.5903 17.6265 80.1336 18.5773 80.1336 19.6988C80.1336 21.6004 78.652 22.7462 76.3062 22.7462C75.3925 22.7218 74.4789 22.5756 73.6147 22.3318C73.911 20.5764 75.0468 17.6265 78.01 17.6265ZM111.716 17.6265C113.148 17.6265 113.839 18.5773 113.839 19.6988C113.839 21.6004 112.358 22.7462 110.012 22.7462C109.098 22.7218 108.185 22.5756 107.32 22.3318C107.617 20.5764 108.901 17.6265 111.716 17.6265ZM38.0817 9.53244C37.9582 11.1903 36.5754 12.5068 34.9704 12.5068C33.3653 12.5068 32.1554 11.1659 32.2542 9.53244C32.3776 7.87463 33.7604 6.55812 35.3655 6.55812C36.9705 6.55812 38.1804 7.899 38.0817 9.53244Z" fill="#CAD1E1"/>
</svg>
